<!DOCTYPE svg PUBLIC "-//W3C//DTD SVG 1.1//EN" "http://www.w3.org/Graphics/SVG/1.1/DTD/svg11.dtd">
<!-- Uploaded to: SVG Repo, www.svgrepo.com, Transformed by: SVG Repo Mixer Tools -->
<svg width="800px" height="800px" viewBox="0 0 24 24" id="magicoon-Regular" xmlns="http://www.w3.org/2000/svg" fill="#000000">
<g id="SVGRepo_bgCarrier" stroke-width="0"/>
<g id="SVGRepo_tracerCarrier" stroke-linecap="round" stroke-linejoin="round"/>
<g id="SVGRepo_iconCarrier"> <defs> <style>.cls-1{fill:#b5b5b5;}</style> </defs> <title>comment</title> <g id="comment-Regular"> <path id="comment-Regular-2" data-name="comment-Regular" class="cls-1" d="M17,3.25H7A4.756,4.756,0,0,0,2.25,8V21a.75.75,0,0,0,1.28.53l2.414-2.414a1.246,1.246,0,0,1,.885-.366H17A4.756,4.756,0,0,0,21.75,14V8A4.756,4.756,0,0,0,17,3.25ZM20.25,14A3.254,3.254,0,0,1,17,17.25H6.829a2.73,2.73,0,0,0-1.945.806L3.75,19.189V8A3.254,3.254,0,0,1,7,4.75H17A3.254,3.254,0,0,1,20.25,8Z"/> </g> </g>
</svg>